<svg xmlns="http://www.w3.org/2000/svg" xmlns:xlink="http://www.w3.org/1999/xlink" xmlns:inkscape="http://www.inkscape.org/namespaces/inkscape" version="1.1" width="1133.86" height="1133.86" viewBox="0 0 1133.86 1133.86">
<defs>
<clipPath id="clip_1">
<path transform="matrix(1,0,0,-1,0,1133.86)" d="M0 1133.858H1133.858V0H0Z"/>
</clipPath>
</defs>
<g inkscape:groupmode="layer" inkscape:label="Layer 1">
<g clip-path="url(#clip_1)">
<path transform="matrix(1,0,0,-1,1013.6782,826.9844)" d="M0 0C-2.947 .321-5.889 .714-8.843 .948-17.488 1.632-20.814 4.865-20.777 13.574-20.722 26.554-20.292 39.532-20.056 52.511-19.991 56.104-20.047 59.699-20.047 64.134-25.305 60.971-29.997 58.171-34.666 55.333-42.234 50.734-49.712 45.984-57.383 41.565-60.09 40.005-61.045 38.213-60.965 35.134-60.756 27.057-60.858 18.971-60.906 10.89-60.947 4.008-63.511 1.345-70.314 1.245-76.968 1.147-83.626 1.158-90.28 1.241-97.176 1.327-99.819 3.94-99.843 10.73-99.893 25.151-99.797 39.572-99.896 53.992-99.925 58.244-98.257 61.134-94.586 63.28-70.839 77.158-47.184 91.194-23.39 104.993-20.133 106.883-18.776 108.885-18.822 112.739-18.923 121.273-18.278 129.813-18.208 138.353-18.125 148.639-22.269 152.807-32.484 153.033-37.711 153.149-42.947 152.969-48.169 153.174-54.871 153.437-59.874 156.084-62.321 162.943-67.417 177.229-72.901 191.377-78.087 205.632-80.659 212.699-78.316 216.701-70.896 216.822-48.894 217.178-26.885 217.128-4.879 217.199-.286 217.214 4.313 217.184 8.9 216.972 18.524 216.529 21.546 213.658 21.969 203.903 22.482 192.045 22.64 180.171 22.924 168.304 23.937 125.889 24.94 83.474 25.943 41.06 26.149 32.357 26.448 23.655 26.515 14.952 26.594 4.629 23.53 1.514 13.098 .77 10.944 .616 8.804 .262 6.658 0Z" fill="#231f20"/>
<path transform="matrix(1,0,0,-1,889.7899,628.1229)" d="M0 0C-.002 8.608-2.471 11.081-10.968 11.091-27.613 11.11-44.261 11.235-60.903 10.996-64.915 10.939-69.106 10.173-72.876 8.801-87.091 3.626-283.768-33.292-320.202-42.524L-322.95-1.088C-322.823 9.009-324.64 11.322-335.923 11.887-352.516 12.717-369.184 12.068-385.82 11.994-388.341 11.982-390.903 11.901-393.372 11.45-400.057 10.231-402.017 6.974-399.674 .654-394.449-13.437-388.916-27.415-383.773-41.535-381.296-48.336-376.338-51.025-369.631-51.427-367.327-51.566-365.008-51.449-362.365-51.449-362.365-64.665-362.365-77.167-362.365-89.669-362.364-122.484-362.38-155.3-362.352-188.115-362.345-196.261-359.832-198.851-352.063-198.929-346.357-198.986-340.65-198.999-334.943-199.006-325.227-199.018-322.959-196.742-322.958-186.951-322.953-158.029-322.929-129.108-322.968-100.186-292.402-91.541-81.932-51.99-64.97-44.786-56.518-41.196-48.307-43.04-39.674-42.371V-159.141C-41.284-159.228-42.379-159.337-43.475-159.338-56.475-159.351-242.855-159.281-255.854-159.375-263.209-159.428-265.519-161.792-265.603-169.048-265.677-175.388-265.643-181.73-265.615-188.071-265.578-196.545-263.42-198.737-254.937-198.747-231.475-198.775-34.632-198.774-11.17-198.747-2.346-198.737 0-196.345 .001-187.382 .014-124.921 .015-62.461 0 0" fill="#231f20"/>
<path transform="matrix(1,0,0,-1,152.0204,726.33267)" d="M0 0C-6.132-6.68-10.626-12.802-10.411-22.038-9.893-44.376-10.232-66.734-10.249-89.083-10.255-96.851-12.736-99.371-20.414-99.421-26.912-99.463-33.413-99.512-39.91-99.404-46.508-99.294-49.178-96.643-49.188-90.112-49.232-62.215-49.259-34.317-49.112-6.421-49.099-4.046-48.179-1.424-46.951 .651-39.788 12.752-32.476 24.768-25.042 36.705-23.491 39.196-23.455 40.994-24.991 43.559-34.497 59.431-43.465 75.634-53.285 91.305-59.8 101.703-51.39 110.587-42.027 110.514-29.664 110.419-17.3 110.355-4.937 110.468 .167 110.514 3.552 108.603 6.192 104.069 24.014 73.463 42.039 42.975 60.005 12.453 60.547 11.531 61.152 10.645 61.572 9.985 67.536 15.66 73.46 21.093 79.072 26.832 80.029 27.811 79.852 30.099 79.855 31.783 79.901 54.291 79.877 76.799 79.891 99.307 79.896 108.32 82.03 110.413 91.123 110.422 97.146 110.428 103.171 110.496 109.192 110.402 115.864 110.298 118.768 107.82 118.799 101.357 118.933 72.985 118.988 44.61 118.669 16.241 118.635 13.183 116.626 9.555 114.438 7.217 104.914-2.963 95.079-12.861 85.134-22.634 82.712-25.014 82.643-26.658 84.306-29.456 95.45-48.214 106.418-67.077 117.445-85.904 122.31-94.211 119.388-99.36 109.738-99.425 96.108-99.516 82.474-99.42 68.849-99.72 62.504-99.86 58.256-97.677 54.962-92.002 38.794-64.139 22.326-36.45 5.914-8.729 4.25-5.917 2.251-3.303 0 0" fill="#231f20"/>
<path transform="matrix(1,0,0,-1,347.324,615.8344)" d="M0 0H20.593C50.383 0 80.172 .006 109.962-.004 119.306-.007 121.769-2.867 119.833-11.806 107.93-66.769 95.97-121.719 84.047-176.677 82.272-184.859 80.601-193.064 78.859-201.253 77.384-208.181 75.349-209.892 68.138-209.911 50.55-209.96 32.961-209.928 15.372-209.928 10.46-209.928 5.545-210.032 .637-209.899-6.533-209.704-8.976-207.249-9.119-200.021-9.248-193.527-9.24-187.026-9.122-180.532-8.989-173.134-6.47-170.603 1.005-170.548 14.632-170.449 28.261-170.426 41.886-170.591 44.856-170.627 46.077-169.584 46.665-166.821 54.092-131.898 61.583-96.988 69.052-62.074 69.18-61.474 69.234-60.858 69.374-59.891H62.106C32.95-59.891 3.789-59.59-25.359-60.047-36.193-60.217-39.715-54.029-39.668-45.517-39.59-31.436-39.245-17.356-39.183-3.274-39.094 16.85-39.174 36.974-39.154 57.098-39.144 66.339-37.66 67.777-28.274 67.802-22.094 67.819-15.914 67.854-9.734 67.79-2.572 67.716-.035 65.205-.016 58.044 .031 40.455 0 22.867 0 5.278Z" fill="#231f20"/>
<path transform="matrix(1,0,0,-1,720.7746,1014.6669)" d="M0 0C-16.568 .039-20.935-1.828-19.999 16.441-13.925 128.123-39.32 112.734-119.286 60.934-124.766 57.655-130.157 53.972-136.533 54.353-167.292 61.129-209.903 111.565-238.183 99.535-247.53 94.382-250.186 82.18-250.618 72.291-251.189 52.313-247.696 16.588-252.584 4.24-255.22-.862-261.663 .62-267.326-.101-270.65-.228-273.992-.212-277.149 .128-280.434 .392-284.285 1.447-285.726 4.367-288.305 10.318-287.728 18.372-287.988 25.032-287.952 36.562-287.127 48.19-287.506 59.697-287.803 89.965-287.539 120.998-287.636 151.489-287.662 155.293-287.607 160.488-284.596 162.85-281.47 165.254-275.713 164.786-271.443 164.943-265.199 165.042-258.833 165.244-252.159 165.389-204.902 168.821-195.53 159.042-160.632 128.33-153.942 122.39-147.202 117.586-138.333 116.596-106.523 114.361-91.227 156.649-62.134 163.713-46.48 166.525-30.56 164.33-14.75 164.833-5.402 164.761 7.124 167.856 14.602 161.826 17.313 159.053 17.026 153.695 17.018 149.632 16.834 97.961 17.346 53.016 16.828 8.895 16.607-.264 7.724-.28 .228-.002Z" fill="#231f20"/>
<path transform="matrix(1,0,0,-1,94.6502,922.2098)" d="M0 0C2.897 21.898 13.214 43.809 30.72 57.771 49.46 72.278 74.422 71.908 97.024 72.923 104.327 73.139 111.629 73.151 118.935 73.161 126.651 73.195 141.639 74.616 137.8 62.446 134.726 52.656 130.869 43.131 127.063 33.601 124.936 27.176 119.26 23.215 112.503 23.349 90.63 21.486 65.162 27.109 46.413 13.283 32.162 3.149 27.9-17.161 38.126-30.841 47.602-43.923 64.552-48 79.871-49.172 88.643-50.214 94.01-47.289 93.898-38.032 94.209-28.648 94.176-19.44 94.314-9.998 94.058 1.648 97.289 5.386 109.105 5.126 117.937 4.935 126.886 5.915 135.604 4.306 143.048 2.781 142.408-6.168 142.439-12.176 142.295-28.31 141.935-44.399 141.873-60.518 141.806-66.654 141.882-72.715 141.721-78.871 141.786-86.255 139.435-92.411 131.04-92.372 115.897-92.678 100.897-91.992 85.779-91.586 69.286-91.133 52.274-89.726 37.614-81.541 10.008-67.275-2.18-29.616-.019-.194Z" fill="#231f20"/>
<path transform="matrix(1,0,0,-1,964.7982,934.86709)" d="M0 0C6.116 .027 12.191-.003 18.333 .301 27.254 .582 29.042 4.839 27.244 13.029 25.683 19.511 25.027 26.665 21.636 32.555 18.832 36.89 13.099 36.791 8.466 36.907 2.13 36.958-4.055 36.989-10.433 36.855-13.469 36.732-16.873 36.515-19.386 34.753-22.169 32.77-23.25 29.22-24.139 26.042-25.395 20.938-26.733 15.873-27.454 10.607-28.76 2.189-23.276 .164-15.993 .023-10.641-.14-5.328-.003-.001 0M.681 86.172C8.4 86.172 16.383 86.179 24.251 86.174 29.541 85.998 35.865 86.762 40.389 83.611 42.134 82.274 43.298 80.05 44.181 77.467 54.273 36.194 62.812-5.439 72.335-46.811 73.694-52.923 75.07-58.983 76.375-65.1 77.603-70.552 78.464-77.576 71.671-79.092 65.811-80.421 54.89-80.775 50.228-77.319 47.531-75.26 46.266-71.364 45.262-67.535 43.69-61.382 42.564-55.608 40.911-49.32 39.919-45.888 38.724-41.934 35.534-40.007 31.698-37.842 26.497-38.166 22.129-38.058 7.328-38.038-7.335-38.04-22.146-38.058-27.468-38.28-34.567-37.414-37.825-42.455-39.043-44.321-39.804-46.631-40.432-48.806-42.395-55.838-43.499-62.414-45.461-69.419-47.962-79.464-54.932-80.103-64.603-79.85-70.362-79.793-77.54-78.386-76.771-70.962-68.257-25.572-56.804 19.32-47.222 64.536-45.574 70.581-44.932 79.292-40.246 83.49-36.793 86.062-31.766 85.935-27.455 86.125-18.149 86.236-8.693 86.142 .485 86.172Z" fill="#231f20"/>
<path transform="matrix(1,0,0,-1,340.3493,934.867)" d="M0 0C5.635 .01 11.244-.018 16.893 .207 22.458 .289 28.247 1.787 27.6 8.599 26.933 15.142 25.197 21.487 23.499 27.861 21.383 35.982 15.771 36.949 8.286 36.905 1.942 36.957-4.21 36.993-10.61 36.865-18.67 36.88-22.482 34.2-24.363 26.261-25.752 20.018-27.917 13.751-27.849 7.285-27.75 .967-20.654 .056-15.684 .001-10.367-.119-5.237-.009-.001 0M.352 86.159C8.196 86.158 16.3 86.172 24.29 86.163 29.505 85.997 35.726 86.707 40.148 83.528 41.897 82.155 43.058 79.898 43.934 77.306 55.031 31.163 64.639-15.29 75.207-61.536 76.525-67.437 79.451-77.405 71.345-79.114 65.478-80.363 54.626-80.771 49.986-77.34 47.316-75.307 45.994-71.432 44.977-67.589 43.367-61.339 42.259-55.529 40.538-49.139 39.542-45.768 38.343-41.882 35.22-39.983 31.402-37.826 26.217-38.164 21.866-38.054 7.077-38.031-7.576-38.034-22.374-38.053-27.778-38.272-35.036-37.388-38.215-42.651-42.856-51.764-43.125-62.481-46.653-72.006-49.058-79.175-56.394-79.97-63.293-79.725-67.184-79.551-71.773-79.814-74.914-77.206-78.798-73.164-75.907-65.908-75.308-60.956-65.92-17.304-55.896 26.161-46.226 69.793-45.132 74.326-43.916 80.607-40.369 83.538-35.765 86.819-29.209 85.94-23.8 86.16-15.798 86.165-7.691 86.158 .156 86.158Z" fill="#231f20"/>
<path transform="matrix(1,0,0,-1,758.8829,932.33529)" d="M0 0C.15 23.962-.312 47.924 .193 71.899 .486 75.19 .791 78.874 3.476 80.967 7.752 83.842 16.034 83.417 21.784 82.983 32.855 81.974 30.771 69.857 30.96 61.785 30.97 33.385 30.941 4.983 30.972-23.425 31.073-27.53 30.99-32.846 33.502-36.048 37.354-40.267 44.229-39.385 49.481-39.648 57.607-39.69 65.702-39.704 73.816-39.681 81.258-40.037 90.444-38.25 96.829-42.232 100.225-44.475 102.137-48.369 103.77-52.004 106.034-57.208 108.299-62.199 110.545-67.44 112.425-71.914 115.253-79.206 108.985-81.402 106.012-82.499 102.153-82.493 98.922-82.516 71.767-82.544 44.668-82.536 17.531-82.521 11.326-82.454 2.251-83.255 .78-75.443 .047-72.465 .022-69.027-.017-65.937 .005-44.001-.001-22.101 0-.196Z" fill="#231f20"/>
<path transform="matrix(1,0,0,-1,762.9286,327.8064)" d="M0 0C-.312 46.288-11.652 82.18-32.025 123.466-43.061 147.967-60.253 168.921-81.975 184.791-110.711 206.217-129.928 215.795-166.317 217.179-193.839 219.087-221.825 217.783-248.417 210.157-309.981 193.046-356.828 142.222-377.639 82.684-386.923 55.806-389.517 27.065-388.777-1.313-387.976-29.967-382.412-58.816-369.324-84.495-331.63-166.669-240.753-194.818-156.177-179-140.173-175.924-125.013-170.042-109.912-163.826-94.852-157.713-79.796-151.454-66.654-141.933-34.964-119.486-12.183-84.055-2.844-45.467 .313-30.614 .245-15.286 .005-.197ZM-167.331 237.536C-118.024 233.658-70.254 210.386-40.058 171.626 8.217 110.023 26.846 27.649 15.51-49.235 8.655-86.981-21.14-129.807-51.084-153.138-64.762-163.969-80.786-171.341-96.82-177.943-117.213-186.508-138.077-194.443-159.816-198.206-241.442-210.406-333.221-187.564-375.51-112.62-391.891-85.821-402.113-55.389-405.367-24.327-409.442 14.278-409.507 54.14-396.119 90.894-362.274 184.484-267.664 245.567-167.529 237.55Z" fill="#231f20"/>
<path transform="matrix(1,0,0,-1,743.8513,309.9613)" d="M0 0-37.443 11.319-34.622 30.115C-34.366 30.114-34.119 30.116-33.873 30.126-29.441 30.311-25.348 32.211-22.345 35.475-19.343 38.739-17.791 42.978-17.977 47.409-18.161 51.84-20.062 55.934-23.325 58.936-26.59 61.939-30.849 63.501-35.259 63.305-39.69 63.12-43.784 61.22-46.787 57.956-49.789 54.691-51.341 50.454-51.155 46.022-51.055 43.618-50.43 41.273-49.328 39.139L-69.367 26.365C-75.421 30.226-82.392 32.105-89.616 31.8-98.963 31.41-107.598 27.403-113.93 20.518-120.02 13.898-123.278 5.378-123.173-3.577-153.687-26.218-166.304-53.462-171.543-67.071-171.385-45.43-169.57 11.846-168.871 33.275-151.687 35.556-138.476 50.465-138.476 67.981-138.476 75.212-140.641 82.1-144.752 87.985L-132.825 108.54C-130.646 107.529-128.277 107.002-125.871 107.002-116.716 107.002-109.268 114.451-109.268 123.606-109.268 132.761-116.716 140.21-125.871 140.21-135.026 140.21-142.476 132.761-142.476 123.606-142.476 123.36-142.469 123.112-142.456 122.857L-161.117 119.253-173.989 156.191C-174.27 156.995-175.027 157.533-175.878 157.533H-175.888C-176.742 157.529-177.499 156.983-177.772 156.173L-191.644 115.116-209.405 124.133C-209.686 133.045-217.022 140.21-226.001 140.21-235.157 140.21-242.605 132.761-242.605 123.606-242.605 114.451-235.157 107.002-226.001 107.002-223.482 107.002-221.021 107.57-218.777 108.658L-205.253 82.738C-207.418 78.097-208.515 73.138-208.515 67.981-208.515 50.806-196.11 36.278-179.368 33.459-180.065 15.282-184.348-17.602-186.272-31.713-193.236-19.741-207.149-9.365-216.237-3.462-215.702-.347-215.592 2.822-215.909 5.979-217.842 25.191-235.047 39.249-254.258 37.317-261.453 36.594-268.089 33.75-273.534 29.071L-295.179 38.88C-294.392 41.148-294.104 43.559-294.345 45.953-295.261 55.063-303.414 61.728-312.527 60.812-321.636 59.896-328.302 51.739-327.386 42.629-326.47 33.52-318.31 26.861-309.204 27.771-308.959 27.795-308.712 27.827-308.46 27.865L-303.007 9.658-338.472-6.846C-339.247-7.207-339.707-8.02-339.617-8.869-339.527-9.719-338.908-10.418-338.075-10.609L-295.835-20.301-303.03-38.876C-307.233-39.431-311.006-41.532-313.701-44.83-316.508-48.264-317.809-52.585-317.365-56.998-316.449-66.107-308.295-72.776-299.183-71.857-290.073-70.94-283.407-62.784-284.324-53.675-284.576-51.167-285.388-48.775-286.695-46.652L-262.258-30.602C-257.424-32.291-252.38-32.886-247.249-32.37-238.312-31.471-230.274-27.31-224.412-20.59-206.542-34.116-194.235-47.554-191.892-68.158-190.618-79.348-193.188-110.772-194.485-125.095-204.174-128.979-210.596-138.393-210.596-148.918-210.596-163.073-199.08-174.588-184.926-174.588-170.771-174.588-159.257-163.073-159.257-148.918-159.257-138.441-165.585-129.105-175.171-125.174-174.181-119.217-172.956-112.005-171.524-103.704-162.799-53.117-135.616-29.7-118.957-19.856-112.606-31.61-100.139-38.749-86.693-38.178-81.54-37.963-76.631-36.66-72.084-34.303L-45.622-46.733C-46.615-49.02-47.08-51.502-46.975-54.021-46.79-58.452-44.89-62.545-41.626-65.548-38.361-68.551-34.1-70.111-29.693-69.917-20.546-69.535-13.414-61.782-13.796-52.634-13.981-48.203-15.881-44.109-19.145-41.107-22.234-38.265-26.196-36.723-30.368-36.723-30.429-36.723-30.49-36.724-30.552-36.724L-40.303-19.354 .14-3.781C.937-3.474 1.451-2.694 1.42-1.84 1.388-.987 .817-.248 0 0" fill="#231f20"/>
</g>
</g>
</svg>
