<svg xmlns="http://www.w3.org/2000/svg" width="144" height="61" viewBox="0 0 144 61" fill="none"><path d="M26.413 58.0312C26.413 57.8966 26.413 57.7701 26.4171 57.6518C26.4212 57.5376 26.4334 57.4234 26.4497 57.3133C26.466 57.2032 26.4905 57.0931 26.5191 56.983C26.5476 56.8728 26.5925 56.7505 26.6455 56.624C26.5517 56.6118 26.462 56.5955 26.3682 56.571C26.2743 56.5465 26.1724 56.5139 26.0623 56.4731C26.099 56.3712 26.1357 56.2732 26.1683 56.1713C26.205 56.0693 26.2376 55.9674 26.2743 55.8613C26.3926 55.898 26.4946 55.9266 26.5843 55.947C26.674 55.9674 26.7597 55.9837 26.8453 55.9918C26.931 56 27.0207 56.0082 27.1145 56.0082C27.2083 56.0082 27.3185 56.0082 27.4408 56.0082H28.5706C28.746 56.0082 28.9214 56.0286 29.0927 56.0653C29.264 56.106 29.419 56.1795 29.5536 56.2855C29.6882 56.3915 29.7983 56.5384 29.8839 56.726C29.9696 56.9136 30.0104 57.1583 30.0104 57.4561V60.3519H26.413V58.023V58.0312ZM29.2844 57.5703C29.2844 57.3908 29.2721 57.244 29.2477 57.1257C29.2232 57.0074 29.1783 56.9136 29.1131 56.8443C29.0478 56.7709 28.9622 56.7219 28.8561 56.6934C28.746 56.6648 28.6114 56.6485 28.4442 56.6485H27.347C27.2899 56.7668 27.2491 56.881 27.2206 56.9993C27.192 57.1135 27.1716 57.2277 27.1594 57.3419C27.1472 57.452 27.139 57.5621 27.139 57.6682C27.139 57.7742 27.139 57.8802 27.139 57.9822V59.7238H29.2884V57.5703H29.2844Z" fill="#002D26"></path><path d="M33.5213 56.0127V57.3668C33.5213 57.5177 33.5213 57.6441 33.5172 57.742C33.5131 57.8399 33.5091 57.9337 33.5009 58.0194C33.4927 58.105 33.4805 58.1825 33.4683 58.26C33.456 58.3375 33.4356 58.4232 33.4152 58.521L32.7096 58.415C32.7219 58.3293 32.7341 58.2559 32.7463 58.1866C32.7586 58.1173 32.7667 58.0438 32.7749 57.9663C32.783 57.8889 32.7912 57.7991 32.7953 57.7012C32.7994 57.6033 32.8034 57.4851 32.8034 57.3505V56.649H31.845V56.0127H33.5254H33.5213Z" fill="#002D26"></path><path d="M36.6342 56.6485C36.5118 56.6485 36.4017 56.6485 36.3038 56.6444C36.2059 56.6444 36.1121 56.6363 36.0224 56.624C35.9326 56.6118 35.8388 56.5955 35.7491 56.571C35.6553 56.5465 35.5574 56.5139 35.4473 56.4731C35.484 56.3712 35.5207 56.2732 35.5533 56.1713C35.59 56.0693 35.6227 55.9674 35.6594 55.8613C35.7776 55.898 35.8796 55.9266 35.9693 55.947C36.0591 55.9674 36.1447 55.9796 36.2304 55.9918C36.316 56 36.4058 56.0082 36.4996 56.0082C36.5934 56.0082 36.7035 56.0122 36.8258 56.0122H37.2174C37.3928 56.0122 37.5682 56.0326 37.7395 56.0693C37.9108 56.1101 38.0657 56.1835 38.2003 56.2896C38.3349 56.3997 38.4451 56.5506 38.5267 56.7423C38.6123 56.934 38.6531 57.1828 38.6531 57.4887V60.356H37.9312V57.5662C37.9312 57.3949 37.9189 57.2481 37.8944 57.1298C37.87 57.0115 37.8251 56.9177 37.7599 56.8443C37.6946 56.7709 37.609 56.7219 37.5029 56.6893C37.3928 56.6607 37.2541 56.6444 37.0869 56.6444H36.6301L36.6342 56.6485Z" fill="#002D26"></path><path d="M40.8879 58.0681C40.8675 57.8029 40.8512 57.5827 40.839 57.4032C40.8308 57.2238 40.8186 57.0647 40.8023 56.9301C40.786 56.7955 40.7656 56.6691 40.737 56.5549C40.7085 56.4407 40.6636 56.3224 40.6106 56.1919C40.7085 56.1348 40.8104 56.0859 40.9165 56.041C41.0225 55.9961 41.1286 55.9553 41.2387 55.9146C41.2917 56.0165 41.3366 56.1103 41.3692 56.2041C41.4059 56.2979 41.4345 56.3999 41.4549 56.5059C41.4753 56.6161 41.4957 56.7384 41.5079 56.8771C41.5201 57.0158 41.5364 57.183 41.5487 57.3747L41.7241 59.7118C41.826 59.7199 41.9198 59.724 42.0136 59.724C42.4868 59.724 42.9028 59.6506 43.2576 59.5078C43.6125 59.3651 43.9061 59.1611 44.1386 58.896C44.3711 58.6309 44.5465 58.3209 44.6648 57.962C44.779 57.599 44.8401 57.2034 44.8401 56.7711C44.8401 56.6528 44.8401 56.5345 44.8279 56.4162C44.8197 56.2979 44.8075 56.1797 44.7953 56.0614C44.9136 56.0287 45.0277 56.0043 45.1419 55.9798C45.2561 55.9553 45.3785 55.9349 45.505 55.9146C45.5253 56.0328 45.5417 56.1593 45.5539 56.2857C45.5661 56.4121 45.5702 56.5467 45.5702 56.6854C45.5702 57.2972 45.4845 57.8315 45.3173 58.2965C45.1501 58.7614 44.9095 59.1448 44.5954 59.4548C44.2814 59.7648 43.898 59.9972 43.4452 60.1522C42.9925 60.3072 42.4827 60.3847 41.9198 60.3847C41.7852 60.3847 41.6466 60.3847 41.5038 60.3725C41.3651 60.3643 41.2183 60.3521 41.0715 60.3317L40.892 58.0558L40.8879 58.0681ZM43.4208 55.9186C43.4616 56.0532 43.4779 56.1837 43.4779 56.3142C43.4779 56.3958 43.4697 56.4774 43.4575 56.559C43.4452 56.6405 43.4289 56.7221 43.4044 56.8078C43.3637 56.9464 43.3188 57.0851 43.2617 57.2238C43.2046 57.3624 43.1475 57.5011 43.0822 57.6439L42.6173 58.6595L41.9973 58.3862L42.4541 57.3706C42.5316 57.1952 42.5928 57.0484 42.6417 56.9342C42.6866 56.82 42.7233 56.718 42.7437 56.6242C42.7641 56.5427 42.7723 56.457 42.7723 56.3673C42.7723 56.2816 42.7641 56.1756 42.7478 56.0491L43.4167 55.9146L43.4208 55.9186Z" fill="#002D26"></path><path d="M48.9029 56.0127V60.3564H48.181V56.649H47.4509V56.0127H48.907H48.9029Z" fill="#002D26"></path><path d="M50.9824 60.3972C50.9824 60.3197 50.9824 60.23 50.9824 60.128C50.9824 60.0261 50.9824 59.92 50.9824 59.8058C50.9824 59.6916 50.9824 59.5693 50.9905 59.4469L50.9987 59.0798C51.0027 58.8718 51.0191 58.6842 51.0435 58.521C51.068 58.3579 51.1047 58.2111 51.1536 58.0765C51.2026 57.9419 51.2597 57.8195 51.3331 57.7053C51.4024 57.5911 51.4881 57.4769 51.586 57.3668C51.4881 57.2281 51.4065 57.1017 51.3372 56.9875C51.2679 56.8733 51.2148 56.7673 51.174 56.6734C51.1292 56.5756 51.0925 56.4777 51.0598 56.3757C51.0272 56.2737 51.0027 56.184 50.9783 56.0943C51.0802 56.0494 51.1863 56.0086 51.3046 55.9719C51.4228 55.9352 51.5371 55.9026 51.6553 55.874C51.6676 55.9067 51.6757 55.9393 51.6879 55.9719C51.6961 56.0045 51.7083 56.0372 51.7206 56.0698C51.7491 56.1595 51.7818 56.2493 51.8144 56.339C51.8511 56.4287 51.896 56.5266 51.949 56.6326C52.002 56.7387 52.0754 56.857 52.1611 56.9834C52.2467 57.1099 52.3528 57.2567 52.4792 57.4198C52.5241 57.4769 52.5689 57.534 52.6097 57.5789C52.6546 57.6278 52.7035 57.6849 52.7606 57.7543C52.8177 57.8236 52.8912 57.9052 52.9768 58.0031L53.3113 58.3865L53.3276 58.4069C53.4295 58.3334 53.5111 58.256 53.5764 58.1785C53.6416 58.0969 53.6946 58.0112 53.7395 57.9174C53.7844 57.8236 53.8252 57.7257 53.8619 57.6156C53.8945 57.5096 53.9312 57.3953 53.9679 57.2689C54.0005 57.1588 54.0291 57.0527 54.0576 56.9426C54.0862 56.8325 54.1147 56.7224 54.1433 56.6163L53.5315 56.4981L53.6457 55.9107L54.8163 56.1147L54.8367 56.6531C54.8081 56.7877 54.7714 56.9345 54.7265 57.0935C54.6817 57.2526 54.6409 57.3994 54.6001 57.5381C54.5512 57.7135 54.5022 57.8644 54.4533 57.9949C54.4043 58.1214 54.3513 58.2396 54.286 58.3416C54.2249 58.4436 54.1514 58.5415 54.0658 58.6312C53.9801 58.7209 53.8741 58.8106 53.7517 58.9085L54.751 60.0832L54.2412 60.5359L52.0061 57.9541C51.9204 58.0602 51.8552 58.1825 51.8144 58.3212C51.7736 58.4599 51.7451 58.6067 51.7288 58.7617C51.7124 58.9167 51.7043 59.0758 51.7043 59.243C51.7043 59.4102 51.7043 59.5733 51.7043 59.7324C51.7043 59.8221 51.7043 59.92 51.7043 60.022C51.7043 60.1239 51.7043 60.2545 51.7002 60.4013H50.9783L50.9824 60.3972Z" fill="#002D26"></path><path d="M56.6038 60.3973C56.6486 60.12 56.6894 59.8794 56.722 59.6754C56.7547 59.4715 56.7873 59.2879 56.8158 59.1289C56.8444 58.9698 56.8689 58.8271 56.8892 58.7006C56.9096 58.5742 56.93 58.4478 56.9504 58.3295C56.9708 58.2071 56.9912 58.0848 57.0116 57.9543C57.032 57.8278 57.0524 57.681 57.0769 57.5178C57.0891 57.3792 57.0932 57.2609 57.081 57.163C57.0728 57.0651 57.0483 56.9754 57.0116 56.8816C56.9749 56.7918 56.9219 56.6939 56.8566 56.592C56.7914 56.49 56.7057 56.3636 56.6119 56.2086C56.669 56.176 56.7179 56.1433 56.7628 56.1148C56.8077 56.0862 56.8525 56.0577 56.9015 56.0291C56.9504 56.0006 56.9994 55.972 57.0524 55.9394C57.1054 55.9068 57.1748 55.8701 57.2522 55.8252C57.3175 55.9149 57.3705 55.9924 57.4195 56.0577C57.4644 56.1229 57.5051 56.1882 57.5418 56.2453C57.5785 56.3024 57.6112 56.3595 57.6397 56.4166C57.6683 56.4737 57.6968 56.5308 57.7254 56.592C57.8437 56.4819 57.9538 56.388 58.0639 56.3024C58.1699 56.2167 58.2801 56.1474 58.3943 56.0903C58.5044 56.0332 58.6227 55.9883 58.7491 55.9598C58.8755 55.9312 59.0142 55.9149 59.1651 55.9149C59.5322 55.9149 59.8381 56.0087 60.0869 56.2004C60.3316 56.3921 60.4948 56.6858 60.5763 57.0814C60.5967 57.1915 60.613 57.3302 60.6253 57.4974C60.6334 57.6646 60.6416 57.836 60.6457 58.0113C60.6497 58.1867 60.6498 58.3621 60.6498 58.5293C60.6498 58.6966 60.6498 58.8434 60.6498 58.9617C60.6498 59.1534 60.6416 59.3369 60.6375 59.5123C60.6334 59.6876 60.6253 59.8345 60.6171 59.9528C60.613 60.0139 60.6049 60.0792 60.6008 60.1445C60.5967 60.2097 60.5886 60.279 60.5763 60.3525H58.5126V59.7162H59.9115C59.9115 59.6673 59.9197 59.6183 59.9237 59.5612C59.9237 59.5041 59.9319 59.4307 59.9319 59.3369C59.9319 59.2431 59.9319 59.1207 59.9319 58.9739C59.9319 58.823 59.9319 58.6354 59.9319 58.3988C59.9319 58.2928 59.9319 58.1867 59.9278 58.0766C59.9278 57.9665 59.9197 57.8604 59.9156 57.7585C59.9115 57.6565 59.9034 57.5627 59.8911 57.473C59.883 57.3832 59.8707 57.3057 59.8544 57.2446C59.8299 57.1426 59.7973 57.0488 59.7565 56.9631C59.7157 56.8775 59.6668 56.8081 59.6056 56.747C59.5444 56.6858 59.471 56.645 59.3894 56.6124C59.3079 56.5797 59.2059 56.5634 59.0917 56.5634C58.9694 56.5634 58.8511 56.5838 58.7369 56.6205C58.6227 56.6613 58.5166 56.7103 58.4146 56.7755C58.3127 56.8408 58.2107 56.9183 58.1169 57.0039C58.0231 57.0896 57.9293 57.1793 57.8437 57.2731C57.7947 57.5831 57.7498 57.8564 57.7131 58.0929C57.6764 58.3295 57.6397 58.5416 57.6112 58.7292C57.5785 58.9168 57.5541 59.084 57.5296 59.2308C57.5051 59.3777 57.4807 59.5163 57.4603 59.6428C57.4399 59.7692 57.4154 59.8957 57.3991 60.014C57.3828 60.1322 57.3583 60.2587 57.3379 60.3892H56.6078L56.6038 60.3973Z" fill="#002D26"></path><path d="M65.9755 58.0312C65.9755 57.8966 65.9755 57.7701 65.9796 57.6518C65.9837 57.5376 65.9959 57.4234 66.0122 57.3133C66.0285 57.2032 66.053 57.0931 66.0816 56.983C66.1101 56.8728 66.155 56.7505 66.208 56.624C66.1142 56.6118 66.0245 56.5955 65.9307 56.571C65.8368 56.5465 65.7349 56.5139 65.6248 56.4731C65.6615 56.3712 65.6982 56.2732 65.7308 56.1713C65.7675 56.0693 65.8001 55.9674 65.8368 55.8613C65.9551 55.898 66.0571 55.9266 66.1468 55.947C66.2365 55.9674 66.3222 55.9837 66.4078 55.9918C66.4935 56 66.5832 56.0082 66.677 56.0082C66.7708 56.0082 66.881 56.0082 67.0033 56.0082H68.1331C68.3085 56.0082 68.4839 56.0286 68.6552 56.0653C68.8265 56.106 68.9815 56.1795 69.1161 56.2855C69.2507 56.3915 69.3608 56.5384 69.4464 56.726C69.5321 56.9136 69.5729 57.1583 69.5729 57.4561V60.3519H65.9755V58.023V58.0312ZM68.8509 57.5703C68.8509 57.3908 68.8387 57.244 68.8142 57.1257C68.7898 57.0074 68.7449 56.9136 68.6796 56.8443C68.6144 56.7709 68.5287 56.7219 68.4227 56.6934C68.3126 56.6648 68.178 56.6485 68.0107 56.6485H66.9136C66.8565 56.7668 66.8157 56.881 66.7872 56.9993C66.7586 57.1135 66.7382 57.2277 66.726 57.3419C66.7137 57.452 66.7056 57.5621 66.7056 57.6682C66.7056 57.7742 66.7056 57.8802 66.7056 57.9822V59.7238H68.855V57.5703H68.8509Z" fill="#002D26"></path><path d="M73.0843 56.0127V57.3668C73.0843 57.5177 73.0843 57.6441 73.0802 57.742C73.0761 57.8399 73.072 57.9337 73.0639 58.0194C73.0557 58.105 73.0435 58.1825 73.0312 58.26C73.019 58.3375 72.9986 58.4232 72.9782 58.521L72.2726 58.415C72.2849 58.3293 72.2971 58.2559 72.3093 58.1866C72.3216 58.1173 72.3297 58.0438 72.3379 57.9663C72.346 57.8889 72.3542 57.7991 72.3583 57.7012C72.3623 57.6033 72.3664 57.4851 72.3664 57.3505V56.649H71.408V56.0127H73.0884H73.0843Z" fill="#002D26"></path><path d="M77.4929 56.5223C77.5215 56.4163 77.55 56.3143 77.5786 56.2123C77.6071 56.1104 77.6397 56.0084 77.6683 55.9023L78.9 56.2286C78.9082 56.3265 78.9164 56.4244 78.9204 56.5223C78.9245 56.6202 78.9286 56.7181 78.9286 56.816C78.9 57.0484 78.8592 57.2809 78.8062 57.5052C78.7532 57.7296 78.6798 57.9457 78.5941 58.1578C78.5085 58.3699 78.4024 58.5739 78.2801 58.7696C78.1577 58.9654 78.0109 59.153 77.8437 59.3284C77.6683 59.5119 77.4684 59.6792 77.2482 59.8301C77.028 59.981 76.7873 60.1156 76.5263 60.242C76.3387 60.3317 76.1388 60.4133 75.9308 60.4908C75.7228 60.5642 75.5025 60.6376 75.266 60.6988L75.062 60.0544C75.2782 59.9891 75.5025 59.9198 75.735 59.8423C75.9634 59.7648 76.2 59.671 76.4365 59.5609C76.2856 59.1693 76.1388 58.7818 75.992 58.3903C75.8451 58.0028 75.6983 57.6113 75.5474 57.2197C75.5066 57.1178 75.474 57.0403 75.4454 56.9791C75.4169 56.9179 75.3761 56.8649 75.3312 56.816C75.2823 56.767 75.217 56.7221 75.1355 56.6814C75.0539 56.6406 74.9438 56.5835 74.801 56.5182C74.85 56.4163 74.903 56.3184 74.956 56.2164C75.009 56.1144 75.062 56.0166 75.1191 55.9146C75.2741 55.9758 75.4047 56.0329 75.5107 56.0818C75.6167 56.1307 75.7146 56.1878 75.7921 56.249C75.8696 56.3061 75.9349 56.3714 75.9879 56.4448C76.0409 56.5182 76.0899 56.6161 76.1388 56.7344L76.2245 56.9506C76.253 57.024 76.2816 57.1055 76.3183 57.1912C76.355 57.2768 76.3876 57.3829 76.4325 57.4971C76.4733 57.6113 76.5222 57.75 76.5793 57.909C76.6364 58.0681 76.7017 58.2516 76.7751 58.4597C76.8485 58.6677 76.9341 58.9124 77.0361 59.1897C77.2196 59.0551 77.3787 58.8961 77.5092 58.7247C77.6397 58.5494 77.7539 58.3577 77.8518 58.1497C77.9416 57.9417 78.0191 57.7173 78.0762 57.4767C78.1333 57.2401 78.1781 56.9832 78.2108 56.7058L77.5052 56.5141L77.4929 56.5223Z" fill="#002D26"></path><path d="M82.6656 56.0127V58.26C82.6656 58.3946 82.686 58.5211 82.7228 58.6434C82.7595 58.7658 82.8043 58.8881 82.8533 59.0146C82.9348 59.2307 83.0083 59.451 83.0817 59.6753C83.151 59.8955 83.2163 60.128 83.2734 60.3646H82.6004C82.5637 60.2178 82.5229 60.0668 82.474 59.9078C82.425 59.7487 82.372 59.5978 82.319 59.4551L82.2129 59.1859C82.1232 59.2878 82.0498 59.3776 81.9886 59.4469C81.9274 59.5162 81.8744 59.5774 81.8254 59.6304C81.7765 59.6835 81.7357 59.7283 81.6949 59.7732C81.6541 59.818 81.6093 59.8629 81.5644 59.9078C81.4176 60.0587 81.2544 60.181 81.0831 60.2789C80.9118 60.3768 80.712 60.4421 80.4836 60.4747C80.455 60.3687 80.4306 60.2626 80.4061 60.1525C80.3816 60.0464 80.3612 59.9404 80.3408 59.8344C80.4346 59.8099 80.5203 59.7854 80.6019 59.7569C80.6794 59.7324 80.7528 59.6998 80.8221 59.6631C80.8914 59.6264 80.9567 59.5815 81.022 59.5285C81.0831 59.4754 81.1484 59.4143 81.2177 59.3368L81.9723 58.5129V56.649H81.0179V56.0127H82.6697H82.6656Z" fill="#002D26"></path><path d="M86.0922 56.6485C85.9698 56.6485 85.8597 56.6485 85.7618 56.6444C85.6639 56.6444 85.5701 56.6363 85.4804 56.624C85.3906 56.6118 85.2968 56.5955 85.2071 56.571C85.1133 56.5465 85.0154 56.5139 84.9053 56.4731C84.942 56.3712 84.9787 56.2732 85.0113 56.1713C85.048 56.0693 85.0807 55.9674 85.1174 55.8613C85.2357 55.898 85.3376 55.9266 85.4273 55.947C85.5171 55.9674 85.6027 55.9796 85.6884 55.9918C85.774 56 85.8638 56.0082 85.9576 56.0082C86.0514 56.0082 86.1615 56.0122 86.2839 56.0122H86.6754C86.8508 56.0122 87.0262 56.0326 87.1975 56.0693C87.3688 56.1101 87.5238 56.1835 87.6583 56.2896C87.7929 56.3997 87.9031 56.5506 87.9846 56.7423C88.0703 56.934 88.1111 57.1828 88.1111 57.4887V60.356H87.3892V57.5662C87.3892 57.3949 87.3769 57.2481 87.3525 57.1298C87.328 57.0115 87.2831 56.9177 87.2179 56.8443C87.1526 56.7709 87.067 56.7219 86.9609 56.6893C86.8508 56.6607 86.7121 56.6444 86.5449 56.6444H86.0881L86.0922 56.6485Z" fill="#002D26"></path><path d="M93.4694 58.0312C93.4694 57.8966 93.4694 57.7701 93.4735 57.6518C93.4776 57.5376 93.4898 57.4234 93.5061 57.3133C93.5224 57.2032 93.5469 57.0931 93.5755 56.983C93.604 56.8728 93.6489 56.7505 93.7019 56.624C93.6081 56.6118 93.5184 56.5955 93.4245 56.571C93.3307 56.5465 93.2288 56.5139 93.1187 56.4731C93.1554 56.3712 93.1921 56.2732 93.2247 56.1713C93.2614 56.0693 93.294 55.9674 93.3307 55.8613C93.449 55.898 93.551 55.9266 93.6407 55.947C93.7305 55.9674 93.8161 55.9837 93.9017 55.9918C93.9874 56 94.0771 56.0082 94.1709 56.0082C94.2648 56.0082 94.3749 56.0082 94.4972 56.0082H95.627C95.8024 56.0082 95.9778 56.0286 96.1491 56.0653C96.3204 56.106 96.4754 56.1795 96.61 56.2855C96.7446 56.3915 96.8547 56.5384 96.9404 56.726C97.026 56.9136 97.0668 57.1583 97.0668 57.4561V60.3519H93.4694V58.023V58.0312ZM96.3408 57.5703C96.3408 57.3908 96.3285 57.244 96.3041 57.1257C96.2796 57.0074 96.2347 56.9136 96.1695 56.8443C96.1042 56.7709 96.0185 56.7219 95.9125 56.6934C95.8024 56.6648 95.6678 56.6485 95.5006 56.6485H94.4034C94.3463 56.7668 94.3055 56.881 94.277 56.9993C94.2484 57.1135 94.228 57.2277 94.2158 57.3419C94.2036 57.452 94.1954 57.5621 94.1954 57.6682C94.1954 57.7742 94.1954 57.8802 94.1954 57.9822V59.7238H96.3448V57.5703H96.3408Z" fill="#002D26"></path><path d="M100.578 56.0127V57.3668C100.578 57.5177 100.578 57.6441 100.574 57.742C100.57 57.8399 100.566 57.9337 100.558 58.0194C100.55 58.105 100.537 58.1825 100.525 58.26C100.513 58.3375 100.493 58.4232 100.472 58.521L99.7665 58.415C99.7788 58.3293 99.791 58.2559 99.8032 58.1866C99.8155 58.1173 99.8236 58.0438 99.8318 57.9663C99.84 57.8889 99.8481 57.7991 99.8522 57.7012C99.8562 57.6033 99.8603 57.4851 99.8603 57.3505V56.649H98.9019V56.0127H100.582H100.578Z" fill="#002D26"></path><path d="M104.609 56.0127V58.26C104.609 58.3946 104.63 58.5211 104.666 58.6434C104.703 58.7658 104.748 58.8881 104.797 59.0146C104.878 59.2307 104.952 59.451 105.025 59.6753C105.095 59.8955 105.16 60.128 105.217 60.3646H104.544C104.507 60.2178 104.466 60.0668 104.418 59.9078C104.369 59.7487 104.316 59.5978 104.263 59.4551L104.157 59.1859C104.067 59.2878 103.993 59.3776 103.932 59.4469C103.871 59.5162 103.818 59.5774 103.769 59.6304C103.72 59.6835 103.679 59.7283 103.639 59.7732C103.598 59.818 103.553 59.8629 103.508 59.9078C103.361 60.0587 103.198 60.181 103.027 60.2789C102.855 60.3768 102.656 60.4421 102.427 60.4747C102.399 60.3687 102.374 60.2626 102.35 60.1525C102.325 60.0464 102.305 59.9404 102.284 59.8344C102.378 59.8099 102.464 59.7854 102.545 59.7569C102.623 59.7324 102.696 59.6998 102.766 59.6631C102.835 59.6264 102.9 59.5815 102.966 59.5285C103.027 59.4754 103.092 59.4143 103.161 59.3368L103.916 58.5129V56.649H102.961V56.0127H104.613H104.609Z" fill="#002D26"></path><path d="M108.949 56.0127V58.26C108.949 58.3946 108.969 58.5211 109.006 58.6434C109.043 58.7658 109.088 58.8881 109.137 59.0146C109.218 59.2307 109.292 59.451 109.365 59.6753C109.434 59.8955 109.5 60.128 109.557 60.3646H108.884C108.847 60.2178 108.806 60.0668 108.757 59.9078C108.708 59.7487 108.655 59.5978 108.602 59.4551L108.496 59.1859C108.407 59.2878 108.333 59.3776 108.272 59.4469C108.211 59.5162 108.158 59.5774 108.109 59.6304C108.06 59.6835 108.019 59.7283 107.978 59.7732C107.938 59.818 107.893 59.8629 107.848 59.9078C107.701 60.0587 107.538 60.181 107.367 60.2789C107.195 60.3768 106.995 60.4421 106.767 60.4747C106.738 60.3687 106.714 60.2626 106.689 60.1525C106.665 60.0464 106.645 59.9404 106.624 59.8344C106.718 59.8099 106.804 59.7854 106.885 59.7569C106.963 59.7324 107.036 59.6998 107.106 59.6631C107.175 59.6264 107.24 59.5815 107.305 59.5285C107.367 59.4754 107.432 59.4143 107.501 59.3368L108.256 58.5129V56.649H107.301V56.0127H108.953H108.949Z" fill="#002D26"></path><path d="M112.725 56.0127V60.3564H112.003V56.649H111.273V56.0127H112.729H112.725Z" fill="#002D26"></path><path d="M115.074 58.0312C115.074 57.8966 115.074 57.7701 115.083 57.6518C115.087 57.5376 115.099 57.4234 115.115 57.3133C115.132 57.2032 115.156 57.0931 115.185 56.983C115.213 56.8728 115.258 56.7505 115.311 56.624C115.221 56.6118 115.127 56.5955 115.034 56.571C114.94 56.5465 114.838 56.5139 114.728 56.4731C114.764 56.3712 114.801 56.2732 114.834 56.1713C114.871 56.0693 114.903 55.9674 114.94 55.8613C115.058 55.898 115.16 55.9266 115.25 55.947C115.34 55.9674 115.425 55.9796 115.511 55.9918C115.596 56 115.686 56.0082 115.78 56.0082C115.874 56.0082 115.984 56.0122 116.11 56.0122H117.142C117.318 56.0122 117.493 56.0326 117.664 56.0693C117.836 56.1101 117.991 56.1835 118.125 56.2896C118.26 56.3956 118.374 56.5425 118.456 56.7301C118.537 56.9177 118.582 57.1624 118.582 57.4601V60.356H117.86V57.5662C117.86 57.3867 117.848 57.2399 117.823 57.1216C117.799 57.0033 117.754 56.9095 117.689 56.8402C117.624 56.7668 117.538 56.7178 117.428 56.6893C117.318 56.6607 117.183 56.6444 117.02 56.6444H116.021C115.964 56.7627 115.923 56.8769 115.894 56.9952C115.866 57.1094 115.845 57.2236 115.833 57.3378C115.821 57.4479 115.813 57.558 115.813 57.6641C115.813 57.7701 115.813 57.8762 115.813 57.9781V60.3519H115.091V58.023L115.074 58.0312Z" fill="#002D26"></path><path d="M122.039 11.9111C122.404 13.169 123.366 13.5122 124.553 13.5106C127.7 13.5059 130.845 13.5106 133.992 13.509C135.088 13.509 136.169 13.6019 137.19 14.0317C139.131 14.8487 140.143 16.3868 140.475 18.405C140.581 19.0473 140.62 19.7085 140.623 20.3603C140.636 24.5525 140.629 28.7433 140.629 32.9355V33.4551H143.269C143.236 33.6093 143.225 33.7069 143.192 33.7982C142.274 36.3989 141.35 38.9996 140.439 41.6035C140.362 41.8239 140.272 41.9073 140.03 41.9073C133.462 41.8995 126.892 41.901 120.324 41.901C120.272 41.901 120.22 41.8947 120.115 41.8869C120.153 41.753 120.181 41.635 120.219 41.5201C121.058 38.976 121.903 36.4336 122.73 33.8848C122.832 33.5684 122.975 33.4676 123.308 33.4676C128.487 33.4787 133.665 33.4755 138.844 33.4755H139.383C139.307 32.5719 139.244 31.7139 139.162 30.8575C139.013 29.2943 138.915 27.7231 138.679 26.1725C138.468 24.7855 137.922 23.5198 136.689 22.6949C135.757 22.0715 134.69 21.9518 133.603 21.9503C130.22 21.9471 126.839 21.9503 123.456 21.9455C123.131 21.9455 122.799 21.9219 122.481 21.8558C121.533 21.659 120.658 20.9364 120.655 19.666C120.65 17.5565 120.642 15.4485 120.661 13.339C120.668 12.5723 121.266 11.9804 122.036 11.9127L122.039 11.9111Z" fill="#002D26"></path><path d="M48.4257 11.9062C48.8775 13.1184 49.8048 13.5136 51.0044 13.512C55.9334 13.5026 60.8609 13.5041 65.7899 13.512C66.352 13.512 66.9171 13.5451 67.4744 13.6112C69.0597 13.8032 69.9098 14.6833 70.0578 16.278C70.1113 16.851 70.1475 17.4272 70.1475 18.0018C70.1554 22.0619 70.1349 26.1219 70.1601 30.1804C70.1696 31.6382 69.5776 32.726 68.3167 33.3966C67.3028 33.9366 66.2465 34.4058 65.1791 34.834C61.5394 36.2933 58.0067 37.9731 54.5858 39.8905C54.4631 39.9598 54.3371 40.0212 54.2096 40.0889C53.4681 38.0486 53.9026 36.0934 55.8862 34.9079C57.0889 34.1885 58.4192 33.8611 59.7872 33.6611C61.6134 33.3935 63.4474 33.181 65.2626 32.8551C66.0749 32.7087 66.8683 32.3891 67.6334 32.0632C68.4772 31.7043 68.9039 30.9896 68.8251 30.0812C68.7417 29.1209 68.611 28.1575 68.3906 27.2208C68.1939 26.3864 67.89 25.5678 67.55 24.7775C67.0368 23.5874 66.2622 22.5877 64.9556 22.2146C64.2991 22.0272 63.5875 21.9611 62.9012 21.958C58.5231 21.9359 54.1451 21.9454 49.7686 21.9485C49.131 21.9485 48.517 21.8761 47.9597 21.5266C47.3363 21.1346 46.9695 20.5726 46.9616 19.8437C46.9396 17.6964 46.938 15.5491 46.9569 13.4018C46.9648 12.5722 47.5079 12.0495 48.4273 11.9094L48.4257 11.9062Z" fill="#002D26"></path><path d="M17.3544 11.9141C17.5984 12.5674 17.9856 13.1278 18.6956 13.3309C19.0908 13.4443 19.5174 13.4946 19.9299 13.5009C21.7119 13.5261 23.4956 13.5057 25.2777 13.5387C26.5198 13.5608 27.1274 14.2566 27.0157 15.494C26.7229 18.7275 26.408 21.9579 26.1152 25.1915C25.9814 26.6603 25.7185 28.1369 26.1026 29.6042C26.4033 30.755 26.7465 31.8963 27.0881 33.0361C27.6454 34.8953 28.1586 36.7592 28.061 38.7334C28.0122 39.7204 27.8485 40.6823 27.5415 41.6206C27.4832 41.8001 27.4203 41.904 27.1983 41.904C23.0028 41.8945 18.809 41.8945 14.6136 41.8914C14.601 41.8914 14.5884 41.8851 14.5254 41.8662C14.56 41.7513 14.5868 41.6316 14.6293 41.5198C15.5975 38.9506 16.5704 36.3846 17.5275 33.8122C17.6299 33.5383 17.7684 33.4674 18.0407 33.4674C19.8228 33.4769 21.6065 33.4722 23.3885 33.4722C23.5428 33.4722 23.6971 33.4722 23.8766 33.4722C23.9852 32.4174 24.0922 31.4051 24.1914 30.3913C24.4213 28.033 24.6448 25.6748 24.8715 23.3165C24.881 23.2126 24.8904 23.1071 24.8904 23.0032C24.8904 22.2696 24.6133 21.9626 23.8797 21.9532C22.7006 21.9359 21.5199 21.9563 20.3408 21.9422C19.5032 21.9327 18.6579 21.9548 17.8329 21.8477C16.7766 21.7092 16.0351 20.8213 16.0288 19.7823C16.0162 17.6476 16.0194 15.5128 16.032 13.3781C16.0367 12.5705 16.5342 12.0337 17.3544 11.9156V11.9141Z" fill="#002D26"></path><path d="M32.3758 11.8955C32.7474 13.2179 33.7423 13.5217 34.9356 13.5217C36.5744 13.5202 38.2132 13.5123 39.852 13.539C41.1083 13.5595 41.7176 14.1089 41.7443 15.3558C41.7727 16.6356 41.7002 17.9187 41.6357 19.2001C41.5318 21.2923 41.3728 23.3814 41.2846 25.4752C41.2185 27.0589 41.6121 28.5891 41.9427 30.124C42.3441 31.9895 42.8085 33.8456 43.0919 35.7284C43.2635 36.865 43.2446 38.0568 43.1313 39.206C42.9628 40.9172 41.7144 41.9216 39.8253 42.057C39.6049 42.0727 39.3845 42.0586 39.1169 42.0586C39.1672 41.1219 39.2129 40.1994 39.2664 39.2784C39.4396 36.2589 39.6159 33.2395 39.7907 30.22C39.9103 28.1814 40.0362 26.1427 40.148 24.1024C40.1716 23.66 40.1889 23.2082 40.1275 22.7737C40.0425 22.1629 39.7513 21.9488 39.1342 21.9488C37.3253 21.9457 35.5149 21.9661 33.7061 21.9362C33.2055 21.9283 32.6812 21.8512 32.2153 21.6796C31.3888 21.3774 30.9243 20.7114 30.9118 19.8409C30.8771 17.6936 30.885 15.5447 30.9055 13.3974C30.9118 12.6338 31.4816 12.0797 32.3758 11.9002V11.8955Z" fill="#002D26"></path><path d="M8.8407 30.2529C8.56521 30.1207 8.31962 30.0042 8.05514 29.8767C8.25822 29.2359 8.47232 28.622 8.64864 27.9986C8.98239 26.8131 9.26261 25.6183 9.1288 24.3683C8.96035 22.7846 8.07561 21.9675 6.45411 21.9471C5.13014 21.9297 3.80618 21.9518 2.48379 21.9345C0.887478 21.9156 0.00431085 21.0198 0.00273657 19.4392C-0.000411972 17.5139 -0.00198624 15.5901 0.00273657 13.6648C0.00588512 12.6431 0.487613 12.0402 1.37078 11.9189C1.39125 11.9347 1.4243 11.9473 1.4306 11.9677C1.81787 13.1878 2.76086 13.52 3.91323 13.52C5.45917 13.52 7.00668 13.4869 8.55261 13.5357C9.19334 13.5562 9.87028 13.6459 10.4575 13.8836C11.4619 14.2929 11.7295 15.2501 11.8381 16.2277C12.1734 19.2614 11.7814 22.2273 10.9471 25.1476C10.4716 26.8131 9.81675 28.4047 9.0123 29.9381C8.9635 30.0294 8.91155 30.1191 8.83755 30.2529H8.8407Z" fill="#002D26"></path><path d="M47.8641 46.0446C47.8641 45.8652 47.8641 45.7093 47.8641 45.5535C47.8641 39.3225 47.8641 33.0931 47.8704 26.8621C47.8704 26.6921 47.9602 26.5221 48.009 26.3521C48.1081 26.5 48.2419 26.6338 48.3002 26.796C49.6824 30.5963 50.8915 34.4501 51.6865 38.4204C51.9683 39.831 52.2107 41.2525 52.0533 42.704C51.8092 44.9694 50.1925 46.1674 47.8625 46.0431L47.8641 46.0446Z" fill="#002D26"></path><path d="M95.2985 13.52C101.106 13.52 106.912 13.5027 112.719 13.5373C113.721 13.5436 114.741 13.6932 115.715 13.9277C116.691 14.1623 117.234 14.9305 117.411 15.9066C117.53 16.5694 117.625 17.2479 117.628 17.9201C117.647 21.7676 117.636 25.6151 117.634 29.4611C117.634 29.6783 117.633 29.8972 117.623 30.1144C117.532 32.5262 117.044 33.0551 114.725 33.5904C112.091 34.1981 109.475 34.8813 106.857 35.5551C106.394 35.6747 105.945 35.8778 105.514 36.0903C104.097 36.7893 103.735 38.4155 104.782 39.5978C105.194 40.0638 105.142 40.4149 104.867 40.8745C104.214 41.9671 103.091 42.3922 101.493 42.071C100.199 41.8112 99.1665 41.1737 98.869 39.793C98.5636 38.3793 99.05 37.2285 100.232 36.3784C101.681 35.3378 103.359 34.8561 105.059 34.4925C107.845 33.8958 110.652 33.4015 113.448 32.8505C114.533 32.6364 115.643 32.3688 115.966 31.1156C116.118 30.5253 116.14 29.8436 116.01 29.2486C115.638 27.5546 115.218 25.867 114.705 24.2109C114.224 22.6618 113.044 21.9628 111.447 21.9424C110.722 21.9329 109.996 21.9376 109.27 21.9376C98.3825 21.9376 87.4948 21.9376 76.6072 21.9376C76.3899 21.9376 76.1711 21.9392 75.9538 21.9376C74.0616 21.9093 73.4208 21.2827 73.4256 19.3889C73.4334 16.5347 73.4256 13.679 73.52 10.828C73.5688 9.34502 73.9419 7.90771 74.8959 6.69867C75.1478 6.38066 75.1746 6.11146 74.8723 5.81392C74.7369 5.68011 74.6582 5.49277 74.537 5.34164C72.8368 3.22897 73.6554 1.8562 75.672 0.0536605C75.7634 -0.0282017 76.0593 -0.012459 76.1664 0.074126C77.0905 0.82348 77.8335 1.75073 77.9862 2.9393C78.0649 3.55484 77.865 4.28058 77.5769 4.8489C77.1991 5.59353 76.6119 6.23111 76.1113 6.91434C75.0329 8.38629 74.6299 10.0377 74.7873 11.8418C74.8582 12.6589 75.2738 13.2051 76.0735 13.3878C76.5159 13.4885 76.9834 13.5153 77.44 13.5153C83.3923 13.5231 89.3446 13.52 95.2954 13.52H95.2985Z" fill="#002D26"></path></svg>