<svg version="1.1" id="Layer_1" xmlns="http://www.w3.org/2000/svg" xmlns:xlink="http://www.w3.org/1999/xlink" x="0px" y="0px"
	 width="100%" viewBox="0 0 240 240" enable-background="new 0 0 240 240" xml:space="preserve">
<path fill="#000000" opacity="1.000000" stroke="none" 
	d="
M128.812119,112.824440 
	C126.557861,115.813698 124.880630,115.078133 123.125580,112.710732 
	C120.085953,108.610542 116.915604,104.607269 113.732422,100.475525 
	C111.436493,102.330368 111.136200,104.586777 110.349083,106.519310 
	C104.035980,122.019333 94.272385,134.860214 80.808151,144.796722 
	C71.180939,151.901520 60.491032,154.465790 48.707550,151.553909 
	C46.953220,151.120407 45.121574,150.812485 43.390491,148.823349 
	C51.001167,140.914139 55.749947,131.023880 61.286602,121.640236 
	C65.354988,114.745049 69.506592,107.916908 74.444534,101.607681 
	C76.081757,99.515800 77.870689,97.512444 79.788551,95.675659 
	C88.132065,87.684853 96.007309,86.730705 106.132057,92.409126 
	C108.136505,93.533310 110.058647,94.804230 112.671913,96.408440 
	C116.955421,84.789986 121.096718,73.557297 125.238007,62.324600 
	C125.762108,62.317085 126.286209,62.309570 126.810303,62.302055 
	C130.956772,73.524544 135.103226,84.747032 139.216080,95.878548 
	C142.185577,95.374504 143.681763,93.659233 145.530533,92.602959 
	C155.646317,86.823448 163.378342,87.569786 171.941376,95.481537 
	C177.998550,101.078033 182.387604,108.001610 186.693192,114.942078 
	C193.774536,126.357002 199.424667,138.672058 208.803131,149.272980 
	C201.291504,153.243347 193.845093,153.255264 186.274841,151.766602 
	C178.691360,150.275360 172.477921,146.119629 166.695694,141.220383 
	C156.076035,132.222427 148.139282,121.256111 142.658752,108.483864 
	C141.559799,105.922752 140.430740,103.374557 138.834335,99.718246 
	C135.190552,104.492920 132.116562,108.520973 128.812119,112.824440 
z"/>
<path fill="#000000" opacity="1.000000" stroke="none" 
	d="
M138.899124,138.134811 
	C149.225021,152.721558 159.342361,167.016495 169.528183,181.408188 
	C167.344193,182.601288 166.479782,181.577866 165.526642,181.021362 
	C153.875137,174.218643 142.168533,167.506287 130.629440,160.517502 
	C127.369843,158.543289 124.827515,158.415436 121.509544,160.433212 
	C110.553551,167.096024 99.423073,173.473236 88.317589,179.887421 
	C86.817230,180.753983 85.462585,182.202469 82.195702,181.721069 
	C96.794937,161.152542 111.024551,141.104736 125.952141,120.073586 
	C130.642792,126.616783 134.666687,132.229904 138.899124,138.134811 
z"/>
</svg>